<mxfile host="app.diagrams.net" modified="2023-04-16T07:17:39.745Z" agent="Mozilla/5.0 (Macintosh; Intel Mac OS X 10_15_7) AppleWebKit/537.36 (KHTML, like Gecko) Chrome/112.0.0.0 Safari/537.36" version="21.1.8" etag="y4kLqqI2luG5JmBP5fpb" type="github">
  <diagram name="第 1 页" id="WQLXQlAR9NUKNL0U6UeE">
    <mxGraphModel>
      <root>
        <mxCell id="0" />
        <mxCell id="1" parent="0" />
      </root>
    </mxGraphModel>
  </diagram>
</mxfile>
